# xmcd
#
# Track frame offsets: 
#        150
#        16108
#        32154
#        54867
#        71167
#        79642
#        89707
#        105153
#        117262
#        127711
#        144901
#        167989
#
# Disc length: 2483 seconds
#
# Revision: 0
# Processed by: cddbd v1.5.2PL0 Copyright (c) Steve Scherf et al.
# Submitted via: ExactAudioCopyFreeDBPlugin 1.0
#
DISCID=8f09b10c
DTITLE=Pam Tillis - Pam Tillis
DYEAR=2011
DGENRE=
TTITLE0=Mi Vida Loca
TTITLE1=Shake the Sugar Tree
TTITLE2=Maybe it was Memphis
TTITLE3=Don't Tell me what to do
TTITLE4=Do You Know Where your Man is
TTITLE5=Blue Rose is
TTITLE6=Cleopatra, Queen of Denial
TTITLE7=When You Walk in the Room
TTITLE8=All the Good Ones are Gone
TTITLE9=In Between Dances
TTITLE10=The River and the Highway
TTITLE11=Go Your Own Way
EXTD=
EXTT0=
EXTT1=
EXTT2=
EXTT3=
EXTT4=
EXTT5=
EXTT6=
EXTT7=
EXTT8=
EXTT9=
EXTT10=
EXTT11=
PLAYORDER=
